<svg width="306" height="87" viewBox="0 0 306 87" fill="none" xmlns="http://www.w3.org/2000/svg">
<path d="M1.94895 86.4078C1.24495 86.4078 0.764953 86.2158 0.508953 85.8318C0.188953 85.4478 0.124953 84.9358 0.316952 84.2958L1.85295 78.4398C2.17295 77.3518 2.90895 76.8078 4.06095 76.8078H33.053C34.397 76.8078 35.645 76.3278 36.797 75.3678C38.013 74.4718 38.781 73.3518 39.101 72.0078L40.349 67.2078H14.429C12.253 67.2078 10.493 66.5358 9.14895 65.1918C7.74095 63.8478 7.03695 62.1518 7.03695 60.1038C7.03695 59.5918 7.16495 58.7598 7.42095 57.6078L15.197 28.8078C15.837 26.1838 17.341 23.9438 19.709 22.0878C22.141 20.1678 24.669 19.2078 27.293 19.2078H65.405C66.109 19.2078 66.589 19.3998 66.845 19.7838C67.165 20.1678 67.229 20.6798 67.037 21.3198L52.253 76.8078C51.549 79.4318 49.981 81.6718 47.549 83.5278C45.181 85.4478 42.685 86.4078 40.061 86.4078H1.94895ZM50.717 28.8078H34.397C33.053 28.8078 31.773 29.2878 30.557 30.2478C29.405 31.1438 28.637 32.2638 28.253 33.6078L23.165 52.8078C23.037 53.4478 22.973 53.8958 22.973 54.1518C22.973 55.1758 23.293 56.0078 23.933 56.6478C24.637 57.2878 25.533 57.6078 26.621 57.6078H42.941L50.717 28.8078ZM69.179 67.2078C67.003 67.2078 65.243 66.5358 63.899 65.1918C62.491 63.8478 61.787 62.1518 61.787 60.1038C61.787 59.5918 61.915 58.7598 62.171 57.6078L71.963 20.8398C72.283 19.7518 73.019 19.2078 74.171 19.2078H84.635C85.339 19.2078 85.819 19.3998 86.075 19.7838C86.395 20.1678 86.459 20.6798 86.267 21.3198L77.915 52.8078C77.787 53.4478 77.723 53.8958 77.723 54.1518C77.723 55.1758 78.043 56.0078 78.683 56.6478C79.387 57.2878 80.283 57.6078 81.371 57.6078H92.891C94.235 57.6078 95.483 57.1598 96.635 56.2638C97.851 55.3038 98.651 54.1518 99.035 52.8078L107.483 20.8398C107.803 19.7518 108.539 19.2078 109.691 19.2078H120.155C120.859 19.2078 121.339 19.3998 121.595 19.7838C121.915 20.1678 121.979 20.6798 121.787 21.3198L112.091 57.6078C111.387 60.2318 109.819 62.5038 107.387 64.4238C105.019 66.2798 102.523 67.2078 99.899 67.2078H69.179ZM116.537 67.2078C115.833 67.2078 115.353 67.0158 115.097 66.6318C114.777 66.2478 114.713 65.7358 114.905 65.0958L126.713 20.8398C127.033 19.7518 127.769 19.2078 128.921 19.2078H139.385C140.089 19.2078 140.569 19.3998 140.825 19.7838C141.145 20.1678 141.209 20.6798 141.017 21.3198L129.209 65.5758C128.889 66.6638 128.153 67.2078 127.001 67.2078H116.537ZM135.756 67.2078C135.052 67.2078 134.572 67.0158 134.316 66.6318C133.996 66.2478 133.932 65.7358 134.124 65.0958L151.116 1.63976C151.436 0.55176 152.172 0.00775909 153.324 0.00775909H163.788C164.492 0.00775909 164.972 0.19976 165.228 0.583763C165.548 0.967762 165.612 1.47976 165.42 2.11976L160.812 19.2078H186.732C188.908 19.2078 190.668 19.8798 192.012 21.2238C193.42 22.5678 194.124 24.2958 194.124 26.4078C194.124 27.1118 194.028 27.9118 193.836 28.8078L186.06 57.6078C185.356 60.2318 183.788 62.5038 181.356 64.4238C178.988 66.2798 176.492 67.2078 173.868 67.2078H135.756ZM166.86 57.6078C168.204 57.6078 169.452 57.1598 170.604 56.2638C171.82 55.3038 172.62 54.1518 173.004 52.8078L178.092 33.6078C178.22 32.9678 178.284 32.5198 178.284 32.2638C178.284 31.2398 177.932 30.4078 177.228 29.7678C176.588 29.1278 175.724 28.8078 174.636 28.8078H158.316L150.54 57.6078H166.86ZM197.898 67.2078C195.722 67.2078 193.962 66.5358 192.618 65.1918C191.21 63.8478 190.506 62.1518 190.506 60.1038C190.506 59.5918 190.634 58.7598 190.89 57.6078L200.682 20.8398C201.002 19.7518 201.738 19.2078 202.89 19.2078H213.354C214.058 19.2078 214.538 19.3998 214.794 19.7838C215.114 20.1678 215.178 20.6798 214.986 21.3198L206.634 52.8078C206.506 53.4478 206.442 53.8958 206.442 54.1518C206.442 55.1758 206.762 56.0078 207.402 56.6478C208.106 57.2878 209.002 57.6078 210.09 57.6078H221.61C222.954 57.6078 224.202 57.1598 225.354 56.2638C226.57 55.3038 227.37 54.1518 227.754 52.8078L236.202 20.8398C236.522 19.7518 237.258 19.2078 238.41 19.2078H248.874C249.578 19.2078 250.058 19.3998 250.314 19.7838C250.634 20.1678 250.698 20.6798 250.506 21.3198L240.81 57.6078C240.106 60.2318 238.538 62.5038 236.106 64.4238C233.738 66.2798 231.242 67.2078 228.618 67.2078H197.898ZM245.256 67.2078C244.552 67.2078 244.072 67.0158 243.816 66.6318C243.496 66.2478 243.432 65.7358 243.624 65.0958L245.16 59.2398C245.48 58.1518 246.216 57.6078 247.368 57.6078H276.36C277.96 57.6078 279.4 56.9998 280.68 55.7838C282.024 54.5678 282.696 53.1598 282.696 51.5598C282.696 50.5358 282.344 49.7038 281.64 49.0638C281 48.3598 280.104 48.0078 278.952 48.0078H257.832C255.656 48.0078 253.864 47.3358 252.456 45.9918C251.112 44.6478 250.44 42.9518 250.44 40.9038C250.44 40.3918 250.568 39.5598 250.824 38.4078L253.416 28.8078C254.056 26.1838 255.56 23.9438 257.928 22.0878C260.36 20.1678 262.888 19.2078 265.512 19.2078H303.624C304.264 19.2078 304.712 19.3998 304.968 19.7838C305.288 20.1678 305.384 20.6798 305.256 21.3198L303.72 27.1758C303.4 28.2638 302.696 28.8078 301.608 28.8078H272.616C271.016 28.8078 269.544 29.4158 268.2 30.6318C266.92 31.8478 266.28 33.2558 266.28 34.8558C266.28 35.8798 266.6 36.7438 267.24 37.4478C267.944 38.0878 268.872 38.4078 270.024 38.4078H291.144C293.32 38.4078 295.08 39.0798 296.424 40.4238C297.832 41.7678 298.536 43.4638 298.536 45.5118C298.536 46.0238 298.408 46.8558 298.152 48.0078L295.56 57.6078C294.856 60.2318 293.288 62.5038 290.856 64.4238C288.488 66.2798 285.992 67.2078 283.368 67.2078H245.256Z" fill="white"/>
</svg>
