<svg width="306" height="121" viewBox="0 0 306 121" fill="none" xmlns="http://www.w3.org/2000/svg">
<mask id="path-1-outside-1_5135_72" maskUnits="userSpaceOnUse" x="-0.802246" y="22.009" width="308" height="90" fill="black">
<rect fill="white" x="-0.802246" y="22.009" width="308" height="90"/>
<path d="M2.26975 110.209C1.56575 110.209 1.08575 110.017 0.829754 109.633C0.509753 109.249 0.445753 108.737 0.637753 108.097L2.17375 102.241C2.49375 101.153 3.22975 100.609 4.38175 100.609H33.3738C34.7178 100.609 35.9658 100.129 37.1178 99.169C38.3338 98.273 39.1018 97.153 39.4218 95.809L40.6698 91.009H14.7498C12.5738 91.009 10.8138 90.337 9.46975 88.993C8.06175 87.649 7.35775 85.953 7.35775 83.905C7.35775 83.393 7.48575 82.561 7.74175 81.409L15.5178 52.609C16.1578 49.985 17.6618 47.745 20.0298 45.889C22.4618 43.969 24.9898 43.009 27.6138 43.009H65.7258C66.4298 43.009 66.9098 43.201 67.1658 43.585C67.4858 43.969 67.5498 44.481 67.3578 45.121L52.5738 100.609C51.8698 103.233 50.3018 105.473 47.8698 107.329C45.5018 109.249 43.0058 110.209 40.3818 110.209H2.26975ZM51.0378 52.609H34.7178C33.3738 52.609 32.0938 53.089 30.8778 54.049C29.7258 54.945 28.9578 56.065 28.5738 57.409L23.4858 76.609C23.3578 77.249 23.2938 77.697 23.2938 77.953C23.2938 78.977 23.6138 79.809 24.2538 80.449C24.9578 81.089 25.8538 81.409 26.9418 81.409H43.2618L51.0378 52.609ZM69.4998 91.009C67.3238 91.009 65.5638 90.337 64.2198 88.993C62.8118 87.649 62.1078 85.953 62.1078 83.905C62.1078 83.393 62.2358 82.561 62.4918 81.409L72.2838 44.641C72.6038 43.553 73.3398 43.009 74.4918 43.009H84.9558C85.6598 43.009 86.1398 43.201 86.3958 43.585C86.7158 43.969 86.7798 44.481 86.5878 45.121L78.2358 76.609C78.1078 77.249 78.0438 77.697 78.0438 77.953C78.0438 78.977 78.3638 79.809 79.0038 80.449C79.7078 81.089 80.6038 81.409 81.6918 81.409H93.2118C94.5558 81.409 95.8038 80.961 96.9558 80.065C98.1718 79.105 98.9718 77.953 99.3558 76.609L107.804 44.641C108.124 43.553 108.86 43.009 110.012 43.009H120.476C121.18 43.009 121.66 43.201 121.916 43.585C122.236 43.969 122.3 44.481 122.108 45.121L112.412 81.409C111.708 84.033 110.14 86.305 107.708 88.225C105.34 90.081 102.844 91.009 100.22 91.009H69.4998ZM116.858 91.009C116.154 91.009 115.674 90.817 115.418 90.433C115.098 90.049 115.034 89.537 115.226 88.897L127.034 44.641C127.354 43.553 128.09 43.009 129.242 43.009H139.706C140.41 43.009 140.89 43.201 141.146 43.585C141.466 43.969 141.53 44.481 141.338 45.121L129.53 89.377C129.21 90.465 128.474 91.009 127.322 91.009H116.858ZM136.077 91.009C135.373 91.009 134.893 90.817 134.637 90.433C134.317 90.049 134.253 89.537 134.445 88.897L151.437 25.441C151.757 24.353 152.493 23.809 153.645 23.809H164.109C164.813 23.809 165.293 24.001 165.549 24.385C165.869 24.769 165.933 25.281 165.741 25.921L161.133 43.009H187.053C189.229 43.009 190.989 43.681 192.333 45.025C193.741 46.369 194.445 48.097 194.445 50.209C194.445 50.913 194.349 51.713 194.157 52.609L186.381 81.409C185.677 84.033 184.109 86.305 181.677 88.225C179.309 90.081 176.813 91.009 174.189 91.009H136.077ZM167.181 81.409C168.525 81.409 169.773 80.961 170.925 80.065C172.141 79.105 172.941 77.953 173.325 76.609L178.413 57.409C178.541 56.769 178.605 56.321 178.605 56.065C178.605 55.041 178.253 54.209 177.549 53.569C176.909 52.929 176.045 52.609 174.957 52.609H158.637L150.861 81.409H167.181ZM198.219 91.009C196.043 91.009 194.283 90.337 192.939 88.993C191.531 87.649 190.827 85.953 190.827 83.905C190.827 83.393 190.955 82.561 191.211 81.409L201.003 44.641C201.323 43.553 202.059 43.009 203.211 43.009H213.675C214.379 43.009 214.859 43.201 215.115 43.585C215.435 43.969 215.499 44.481 215.307 45.121L206.955 76.609C206.827 77.249 206.763 77.697 206.763 77.953C206.763 78.977 207.083 79.809 207.723 80.449C208.427 81.089 209.323 81.409 210.411 81.409H221.931C223.275 81.409 224.523 80.961 225.675 80.065C226.891 79.105 227.691 77.953 228.075 76.609L236.523 44.641C236.843 43.553 237.579 43.009 238.731 43.009H249.195C249.899 43.009 250.379 43.201 250.635 43.585C250.955 43.969 251.019 44.481 250.827 45.121L241.131 81.409C240.427 84.033 238.859 86.305 236.427 88.225C234.059 90.081 231.563 91.009 228.939 91.009H198.219ZM245.577 91.009C244.873 91.009 244.393 90.817 244.137 90.433C243.817 90.049 243.753 89.537 243.945 88.897L245.481 83.041C245.801 81.953 246.537 81.409 247.689 81.409H276.681C278.281 81.409 279.721 80.801 281.001 79.585C282.345 78.369 283.017 76.961 283.017 75.361C283.017 74.337 282.665 73.505 281.961 72.865C281.321 72.161 280.425 71.809 279.273 71.809H258.153C255.977 71.809 254.185 71.137 252.777 69.793C251.433 68.449 250.761 66.753 250.761 64.705C250.761 64.193 250.889 63.361 251.145 62.209L253.737 52.609C254.377 49.985 255.881 47.745 258.249 45.889C260.681 43.969 263.209 43.009 265.833 43.009H303.945C304.585 43.009 305.033 43.201 305.289 43.585C305.609 43.969 305.705 44.481 305.577 45.121L304.041 50.977C303.721 52.065 303.017 52.609 301.929 52.609H272.937C271.337 52.609 269.865 53.217 268.521 54.433C267.241 55.649 266.601 57.057 266.601 58.657C266.601 59.681 266.921 60.545 267.561 61.249C268.265 61.889 269.193 62.209 270.345 62.209H291.465C293.641 62.209 295.401 62.881 296.745 64.225C298.153 65.569 298.857 67.265 298.857 69.313C298.857 69.825 298.729 70.657 298.473 71.809L295.881 81.409C295.177 84.033 293.609 86.305 291.177 88.225C288.809 90.081 286.313 91.009 283.689 91.009H245.577Z"/>
</mask>
<path d="M2.26975 110.209C1.56575 110.209 1.08575 110.017 0.829754 109.633C0.509753 109.249 0.445753 108.737 0.637753 108.097L2.17375 102.241C2.49375 101.153 3.22975 100.609 4.38175 100.609H33.3738C34.7178 100.609 35.9658 100.129 37.1178 99.169C38.3338 98.273 39.1018 97.153 39.4218 95.809L40.6698 91.009H14.7498C12.5738 91.009 10.8138 90.337 9.46975 88.993C8.06175 87.649 7.35775 85.953 7.35775 83.905C7.35775 83.393 7.48575 82.561 7.74175 81.409L15.5178 52.609C16.1578 49.985 17.6618 47.745 20.0298 45.889C22.4618 43.969 24.9898 43.009 27.6138 43.009H65.7258C66.4298 43.009 66.9098 43.201 67.1658 43.585C67.4858 43.969 67.5498 44.481 67.3578 45.121L52.5738 100.609C51.8698 103.233 50.3018 105.473 47.8698 107.329C45.5018 109.249 43.0058 110.209 40.3818 110.209H2.26975ZM51.0378 52.609H34.7178C33.3738 52.609 32.0938 53.089 30.8778 54.049C29.7258 54.945 28.9578 56.065 28.5738 57.409L23.4858 76.609C23.3578 77.249 23.2938 77.697 23.2938 77.953C23.2938 78.977 23.6138 79.809 24.2538 80.449C24.9578 81.089 25.8538 81.409 26.9418 81.409H43.2618L51.0378 52.609ZM69.4998 91.009C67.3238 91.009 65.5638 90.337 64.2198 88.993C62.8118 87.649 62.1078 85.953 62.1078 83.905C62.1078 83.393 62.2358 82.561 62.4918 81.409L72.2838 44.641C72.6038 43.553 73.3398 43.009 74.4918 43.009H84.9558C85.6598 43.009 86.1398 43.201 86.3958 43.585C86.7158 43.969 86.7798 44.481 86.5878 45.121L78.2358 76.609C78.1078 77.249 78.0438 77.697 78.0438 77.953C78.0438 78.977 78.3638 79.809 79.0038 80.449C79.7078 81.089 80.6038 81.409 81.6918 81.409H93.2118C94.5558 81.409 95.8038 80.961 96.9558 80.065C98.1718 79.105 98.9718 77.953 99.3558 76.609L107.804 44.641C108.124 43.553 108.86 43.009 110.012 43.009H120.476C121.18 43.009 121.66 43.201 121.916 43.585C122.236 43.969 122.3 44.481 122.108 45.121L112.412 81.409C111.708 84.033 110.14 86.305 107.708 88.225C105.34 90.081 102.844 91.009 100.22 91.009H69.4998ZM116.858 91.009C116.154 91.009 115.674 90.817 115.418 90.433C115.098 90.049 115.034 89.537 115.226 88.897L127.034 44.641C127.354 43.553 128.09 43.009 129.242 43.009H139.706C140.41 43.009 140.89 43.201 141.146 43.585C141.466 43.969 141.53 44.481 141.338 45.121L129.53 89.377C129.21 90.465 128.474 91.009 127.322 91.009H116.858ZM136.077 91.009C135.373 91.009 134.893 90.817 134.637 90.433C134.317 90.049 134.253 89.537 134.445 88.897L151.437 25.441C151.757 24.353 152.493 23.809 153.645 23.809H164.109C164.813 23.809 165.293 24.001 165.549 24.385C165.869 24.769 165.933 25.281 165.741 25.921L161.133 43.009H187.053C189.229 43.009 190.989 43.681 192.333 45.025C193.741 46.369 194.445 48.097 194.445 50.209C194.445 50.913 194.349 51.713 194.157 52.609L186.381 81.409C185.677 84.033 184.109 86.305 181.677 88.225C179.309 90.081 176.813 91.009 174.189 91.009H136.077ZM167.181 81.409C168.525 81.409 169.773 80.961 170.925 80.065C172.141 79.105 172.941 77.953 173.325 76.609L178.413 57.409C178.541 56.769 178.605 56.321 178.605 56.065C178.605 55.041 178.253 54.209 177.549 53.569C176.909 52.929 176.045 52.609 174.957 52.609H158.637L150.861 81.409H167.181ZM198.219 91.009C196.043 91.009 194.283 90.337 192.939 88.993C191.531 87.649 190.827 85.953 190.827 83.905C190.827 83.393 190.955 82.561 191.211 81.409L201.003 44.641C201.323 43.553 202.059 43.009 203.211 43.009H213.675C214.379 43.009 214.859 43.201 215.115 43.585C215.435 43.969 215.499 44.481 215.307 45.121L206.955 76.609C206.827 77.249 206.763 77.697 206.763 77.953C206.763 78.977 207.083 79.809 207.723 80.449C208.427 81.089 209.323 81.409 210.411 81.409H221.931C223.275 81.409 224.523 80.961 225.675 80.065C226.891 79.105 227.691 77.953 228.075 76.609L236.523 44.641C236.843 43.553 237.579 43.009 238.731 43.009H249.195C249.899 43.009 250.379 43.201 250.635 43.585C250.955 43.969 251.019 44.481 250.827 45.121L241.131 81.409C240.427 84.033 238.859 86.305 236.427 88.225C234.059 90.081 231.563 91.009 228.939 91.009H198.219ZM245.577 91.009C244.873 91.009 244.393 90.817 244.137 90.433C243.817 90.049 243.753 89.537 243.945 88.897L245.481 83.041C245.801 81.953 246.537 81.409 247.689 81.409H276.681C278.281 81.409 279.721 80.801 281.001 79.585C282.345 78.369 283.017 76.961 283.017 75.361C283.017 74.337 282.665 73.505 281.961 72.865C281.321 72.161 280.425 71.809 279.273 71.809H258.153C255.977 71.809 254.185 71.137 252.777 69.793C251.433 68.449 250.761 66.753 250.761 64.705C250.761 64.193 250.889 63.361 251.145 62.209L253.737 52.609C254.377 49.985 255.881 47.745 258.249 45.889C260.681 43.969 263.209 43.009 265.833 43.009H303.945C304.585 43.009 305.033 43.201 305.289 43.585C305.609 43.969 305.705 44.481 305.577 45.121L304.041 50.977C303.721 52.065 303.017 52.609 301.929 52.609H272.937C271.337 52.609 269.865 53.217 268.521 54.433C267.241 55.649 266.601 57.057 266.601 58.657C266.601 59.681 266.921 60.545 267.561 61.249C268.265 61.889 269.193 62.209 270.345 62.209H291.465C293.641 62.209 295.401 62.881 296.745 64.225C298.153 65.569 298.857 67.265 298.857 69.313C298.857 69.825 298.729 70.657 298.473 71.809L295.881 81.409C295.177 84.033 293.609 86.305 291.177 88.225C288.809 90.081 286.313 91.009 283.689 91.009H245.577Z" fill="white"/>
<path d="M0.829754 109.633L1.6618 109.078L1.63217 109.034L1.59797 108.993L0.829754 109.633ZM0.637753 108.097L1.59558 108.384L1.6006 108.368L1.60503 108.351L0.637753 108.097ZM2.17375 102.241L1.21439 101.959L1.21022 101.973L1.20647 101.987L2.17375 102.241ZM37.1178 99.169L36.5246 98.364L36.5005 98.3817L36.4776 98.4008L37.1178 99.169ZM39.4218 95.809L38.4539 95.5574L38.4513 95.5674L38.4489 95.5774L39.4218 95.809ZM40.6698 91.009L41.6376 91.2607L41.963 90.009H40.6698V91.009ZM9.46975 88.993L10.1769 88.2859L10.1686 88.2777L10.1602 88.2697L9.46975 88.993ZM7.74175 81.409L6.77632 81.1484L6.77045 81.1701L6.76557 81.1921L7.74175 81.409ZM15.5178 52.609L16.4832 52.8697L16.4864 52.8579L16.4893 52.846L15.5178 52.609ZM20.0298 45.889L20.6466 46.6761L20.6494 46.6739L20.0298 45.889ZM67.1658 43.585L66.3337 44.1397L66.3633 44.1842L66.3975 44.2252L67.1658 43.585ZM67.3578 45.121L66.3999 44.8337L66.3955 44.8486L66.3915 44.8636L67.3578 45.121ZM52.5738 100.609L53.5396 100.868L53.54 100.866L52.5738 100.609ZM47.8698 107.329L47.2631 106.534L47.2514 106.543L47.24 106.552L47.8698 107.329ZM51.0378 52.609L52.0032 52.8697L52.3436 51.609H51.0378V52.609ZM30.8778 54.049L31.4917 54.8384L31.4974 54.8339L30.8778 54.049ZM28.5738 57.409L27.6122 57.1343L27.6096 57.1436L27.6071 57.1529L28.5738 57.409ZM23.4858 76.609L22.5191 76.3529L22.5112 76.3827L22.5052 76.4129L23.4858 76.609ZM24.2538 80.449L23.5466 81.1561L23.5635 81.173L23.5811 81.189L24.2538 80.449ZM43.2618 81.409V82.409H44.0276L44.2272 81.6697L43.2618 81.409ZM2.26975 109.209C2.00187 109.209 1.8407 109.172 1.75314 109.137C1.6775 109.106 1.66435 109.082 1.6618 109.078L-0.0022965 110.188C0.522373 110.975 1.41611 111.209 2.26975 111.209V109.209ZM1.59797 108.993C1.56223 108.95 1.464 108.823 1.59558 108.384L-0.320073 107.81C-0.572497 108.651 -0.542721 109.548 0.0615327 110.273L1.59797 108.993ZM1.60503 108.351L3.14103 102.495L1.20647 101.987L-0.329526 107.843L1.60503 108.351ZM3.13312 102.523C3.2466 102.137 3.40584 101.935 3.56014 101.821C3.71594 101.706 3.96377 101.609 4.38175 101.609V99.609C3.64774 99.609 2.95157 99.784 2.37136 100.213C1.78967 100.643 1.42091 101.257 1.21439 101.959L3.13312 102.523ZM4.38175 101.609H33.3738V99.609H4.38175V101.609ZM33.3738 101.609C34.979 101.609 36.4484 101.029 37.7579 99.9373L36.4776 98.4008C35.4831 99.2295 34.4565 99.609 33.3738 99.609V101.609ZM37.711 99.9741C39.0982 98.9519 40.0145 97.6367 40.3946 96.0407L38.4489 95.5774C38.189 96.6694 37.5693 97.5942 36.5246 98.364L37.711 99.9741ZM40.3896 96.0607L41.6376 91.2607L39.7019 90.7574L38.4539 95.5574L40.3896 96.0607ZM40.6698 90.009H14.7498V92.009H40.6698V90.009ZM14.7498 90.009C12.7973 90.009 11.3058 89.4148 10.1769 88.2859L8.76265 89.7001C10.3218 91.2592 12.3503 92.009 14.7498 92.009V90.009ZM10.1602 88.2697C8.96117 87.1251 8.35775 85.6957 8.35775 83.905H6.35775C6.35775 86.2103 7.16233 88.1729 8.77928 89.7164L10.1602 88.2697ZM8.35775 83.905C8.35775 83.5126 8.46268 82.7746 8.71794 81.626L6.76557 81.1921C6.50882 82.3474 6.35775 83.2734 6.35775 83.905H8.35775ZM8.70718 81.6697L16.4832 52.8697L14.5523 52.3484L6.77632 81.1484L8.70718 81.6697ZM16.4893 52.846C17.07 50.4648 18.4339 48.4104 20.6466 46.6761L19.4129 45.102C16.8896 47.0797 15.2455 49.5052 14.5462 52.3721L16.4893 52.846ZM20.6494 46.6739C22.9381 44.867 25.2535 44.009 27.6138 44.009V42.009C24.726 42.009 21.9854 43.071 19.4101 45.1041L20.6494 46.6739ZM27.6138 44.009H65.7258V42.009H27.6138V44.009ZM65.7258 44.009C65.9936 44.009 66.1548 44.0465 66.2424 44.0815C66.318 44.1118 66.3312 44.1359 66.3337 44.1397L67.9978 43.0303C67.4731 42.2433 66.5794 42.009 65.7258 42.009V44.009ZM66.3975 44.2252C66.4333 44.2681 66.5315 44.3951 66.3999 44.8337L68.3156 45.4084C68.568 44.567 68.5382 43.6699 67.934 42.9448L66.3975 44.2252ZM66.3915 44.8636L51.6075 100.352L53.54 100.866L68.324 45.3785L66.3915 44.8636ZM51.6079 100.35C50.9683 102.734 49.5427 104.794 47.2631 106.534L48.4764 108.124C51.0608 106.152 52.7712 103.732 53.5396 100.868L51.6079 100.35ZM47.24 106.552C45.0198 108.352 42.7403 109.209 40.3818 109.209V111.209C43.2712 111.209 45.9837 110.146 48.4996 108.106L47.24 106.552ZM40.3818 109.209H2.26975V111.209H40.3818V109.209ZM51.0378 51.609H34.7178V53.609H51.0378V51.609ZM34.7178 51.609C33.1154 51.609 31.6224 52.1871 30.2581 53.2641L31.4974 54.8339C32.5652 53.9909 33.6321 53.609 34.7178 53.609V51.609ZM30.2638 53.2597C28.9522 54.2799 28.0572 55.5768 27.6122 57.1343L29.5353 57.6838C29.8583 56.5532 30.4993 55.6102 31.4917 54.8384L30.2638 53.2597ZM27.6071 57.1529L22.5191 76.3529L24.4524 76.8652L29.5404 57.6652L27.6071 57.1529ZM22.5052 76.4129C22.3781 77.0484 22.2938 77.5859 22.2938 77.953H24.2938C24.2938 77.8081 24.3374 77.4497 24.4663 76.8051L22.5052 76.4129ZM22.2938 77.953C22.2938 79.2043 22.6939 80.3034 23.5466 81.1561L24.9609 79.7419C24.5336 79.3147 24.2938 78.7498 24.2938 77.953H22.2938ZM23.5811 81.189C24.4956 82.0204 25.6432 82.409 26.9418 82.409V80.409C26.0643 80.409 25.4199 80.1577 24.9264 79.7091L23.5811 81.189ZM26.9418 82.409H43.2618V80.409H26.9418V82.409ZM44.2272 81.6697L52.0032 52.8697L50.0723 52.3484L42.2963 81.1484L44.2272 81.6697ZM64.2198 88.993L64.9269 88.2859L64.9186 88.2777L64.9102 88.2697L64.2198 88.993ZM62.4918 81.409L61.5254 81.1517L61.5201 81.1718L61.5156 81.1921L62.4918 81.409ZM72.2838 44.641L71.3244 44.3589L71.3208 44.3712L71.3174 44.3837L72.2838 44.641ZM86.3958 43.585L85.5637 44.1397L85.5933 44.1842L85.6275 44.2252L86.3958 43.585ZM86.5878 45.121L85.6299 44.8337L85.6253 44.8491L85.6212 44.8647L86.5878 45.121ZM78.2358 76.609L77.2692 76.3527L77.2612 76.3826L77.2552 76.4129L78.2358 76.609ZM79.0038 80.449L78.2966 81.1561L78.3135 81.173L78.3311 81.189L79.0038 80.449ZM96.9558 80.065L97.5697 80.8544L97.5754 80.8499L96.9558 80.065ZM99.3558 76.609L100.317 76.8838L100.32 76.8742L100.323 76.8645L99.3558 76.609ZM107.804 44.641L106.844 44.3589L106.84 44.3722L106.837 44.3855L107.804 44.641ZM121.916 43.585L121.084 44.1397L121.113 44.1842L121.148 44.2252L121.916 43.585ZM122.108 45.121L121.15 44.8337L121.146 44.8482L121.142 44.8629L122.108 45.121ZM112.412 81.409L113.378 81.6682L113.378 81.6672L112.412 81.409ZM107.708 88.225L108.325 89.0121L108.327 89.0099L107.708 88.225ZM69.4998 90.009C67.5473 90.009 66.0558 89.4148 64.9269 88.2859L63.5126 89.7001C65.0718 91.2592 67.1003 92.009 69.4998 92.009V90.009ZM64.9102 88.2697C63.7112 87.1251 63.1078 85.6957 63.1078 83.905H61.1078C61.1078 86.2103 61.9123 88.1729 63.5293 89.7164L64.9102 88.2697ZM63.1078 83.905C63.1078 83.5126 63.2127 82.7746 63.4679 81.626L61.5156 81.1921C61.2588 82.3474 61.1078 83.2734 61.1078 83.905H63.1078ZM63.4581 81.6664L73.2501 44.8984L71.3174 44.3837L61.5254 81.1517L63.4581 81.6664ZM73.2431 44.9232C73.3566 44.5374 73.5158 44.3353 73.6701 44.2212C73.8259 44.1061 74.0738 44.009 74.4918 44.009V42.009C73.7577 42.009 73.0616 42.184 72.4814 42.6129C71.8997 43.0428 71.5309 43.6567 71.3244 44.3589L73.2431 44.9232ZM74.4918 44.009H84.9558V42.009H74.4918V44.009ZM84.9558 44.009C85.2236 44.009 85.3848 44.0465 85.4724 44.0815C85.548 44.1118 85.5612 44.1359 85.5637 44.1397L87.2278 43.0303C86.7031 42.2433 85.8094 42.009 84.9558 42.009V44.009ZM85.6275 44.2252C85.6633 44.2681 85.7615 44.3951 85.6299 44.8337L87.5456 45.4084C87.798 44.567 87.7682 43.67 87.164 42.9448L85.6275 44.2252ZM85.6212 44.8647L77.2692 76.3527L79.2023 76.8654L87.5543 45.3774L85.6212 44.8647ZM77.2552 76.4129C77.1281 77.0484 77.0438 77.5859 77.0438 77.953H79.0438C79.0438 77.8081 79.0874 77.4497 79.2163 76.8051L77.2552 76.4129ZM77.0438 77.953C77.0438 79.2043 77.4439 80.3034 78.2966 81.1561L79.7109 79.7419C79.2836 79.3147 79.0438 78.7498 79.0438 77.953H77.0438ZM78.3311 81.189C79.2456 82.0204 80.3932 82.409 81.6918 82.409V80.409C80.8143 80.409 80.1699 80.1577 79.6764 79.7091L78.3311 81.189ZM81.6918 82.409H93.2118V80.409H81.6918V82.409ZM93.2118 82.409C94.7976 82.409 96.2582 81.8744 97.5697 80.8544L96.3418 79.2757C95.3493 80.0476 94.3139 80.409 93.2118 80.409V82.409ZM97.5754 80.8499C98.9373 79.7747 99.8694 78.4512 100.317 76.8838L98.3942 76.3343C98.0741 77.4548 97.4062 78.4354 96.3361 79.2801L97.5754 80.8499ZM100.323 76.8645L108.771 44.8965L106.837 44.3855L98.3889 76.3535L100.323 76.8645ZM108.763 44.9232C108.877 44.5374 109.036 44.3353 109.19 44.2212C109.346 44.1061 109.594 44.009 110.012 44.009V42.009C109.278 42.009 108.582 42.184 108.001 42.6129C107.42 43.0428 107.051 43.6567 106.844 44.3589L108.763 44.9232ZM110.012 44.009H120.476V42.009H110.012V44.009ZM120.476 44.009C120.744 44.009 120.905 44.0465 120.992 44.0815C121.068 44.1118 121.081 44.1359 121.084 44.1397L122.748 43.0303C122.223 42.2433 121.329 42.009 120.476 42.009V44.009ZM121.148 44.2252C121.183 44.2681 121.282 44.3951 121.15 44.8337L123.066 45.4084C123.318 44.567 123.288 43.6699 122.684 42.9448L121.148 44.2252ZM121.142 44.8629L111.446 81.1509L113.378 81.6672L123.074 45.3792L121.142 44.8629ZM111.446 81.1499C110.805 83.5374 109.376 85.634 107.088 87.4402L108.327 89.0099C110.904 86.9761 112.61 84.5287 113.378 81.6682L111.446 81.1499ZM107.091 87.438C104.872 89.1772 102.588 90.009 100.22 90.009V92.009C103.1 92.009 105.808 90.9848 108.325 89.0121L107.091 87.438ZM100.22 90.009H69.4998V92.009H100.22V90.009ZM115.418 90.433L116.25 89.8783L116.22 89.8339L116.186 89.7928L115.418 90.433ZM115.226 88.897L116.184 89.1844L116.188 89.1697L116.192 89.1548L115.226 88.897ZM127.034 44.641L126.074 44.3589L126.071 44.371L126.068 44.3832L127.034 44.641ZM141.146 43.585L140.314 44.1397L140.343 44.1842L140.378 44.2252L141.146 43.585ZM141.338 45.121L140.38 44.8337L140.376 44.8484L140.372 44.8632L141.338 45.121ZM129.53 89.377L130.489 89.6592L130.493 89.6471L130.496 89.6348L129.53 89.377ZM116.858 90.009C116.59 90.009 116.429 89.9716 116.341 89.9366C116.266 89.9063 116.252 89.8821 116.25 89.8783L114.586 90.9877C115.11 91.7747 116.004 92.009 116.858 92.009V90.009ZM116.186 89.7928C116.15 89.75 116.052 89.623 116.184 89.1844L114.268 88.6097C114.016 89.4511 114.045 90.3481 114.65 91.0732L116.186 89.7928ZM116.192 89.1548L128 44.8988L126.068 44.3832L114.26 88.6392L116.192 89.1548ZM127.993 44.9232C128.107 44.5374 128.266 44.3353 128.42 44.2212C128.576 44.1061 128.824 44.009 129.242 44.009V42.009C128.508 42.009 127.812 42.184 127.231 42.6129C126.65 43.0428 126.281 43.6567 126.074 44.3589L127.993 44.9232ZM129.242 44.009H139.706V42.009H129.242V44.009ZM139.706 44.009C139.974 44.009 140.135 44.0465 140.222 44.0815C140.298 44.1118 140.311 44.1359 140.314 44.1397L141.978 43.0303C141.453 42.2433 140.559 42.009 139.706 42.009V44.009ZM140.378 44.2252C140.413 44.2681 140.512 44.3951 140.38 44.8337L142.296 45.4084C142.548 44.567 142.518 43.67 141.914 42.9448L140.378 44.2252ZM140.372 44.8632L128.564 89.1192L130.496 89.6348L142.304 45.3788L140.372 44.8632ZM128.57 89.0949C128.457 89.4807 128.298 89.6828 128.143 89.7969C127.988 89.912 127.74 90.009 127.322 90.009V92.009C128.056 92.009 128.752 91.8341 129.332 91.4052C129.914 90.9753 130.283 90.3614 130.489 89.6592L128.57 89.0949ZM127.322 90.009H116.858V92.009H127.322V90.009ZM134.637 90.433L135.469 89.8783L135.439 89.8339L135.405 89.7928L134.637 90.433ZM134.445 88.897L135.402 89.1844L135.407 89.1701L135.41 89.1557L134.445 88.897ZM151.437 25.441L150.477 25.1589L150.474 25.1706L150.471 25.1824L151.437 25.441ZM165.549 24.385L164.716 24.9397L164.746 24.9842L164.78 25.0252L165.549 24.385ZM165.741 25.921L164.783 25.6337L164.779 25.6471L164.775 25.6607L165.741 25.921ZM161.133 43.009L160.167 42.7487L159.827 44.009H161.133V43.009ZM192.333 45.025L191.625 45.7321L191.634 45.7404L191.642 45.7484L192.333 45.025ZM194.157 52.609L195.122 52.8697L195.129 52.8443L195.134 52.8186L194.157 52.609ZM186.381 81.409L185.415 81.1484L185.415 81.1499L186.381 81.409ZM181.677 88.225L182.293 89.0121L182.296 89.0099L181.677 88.225ZM170.925 80.065L171.538 80.8544L171.544 80.8499L170.925 80.065ZM173.325 76.609L174.286 76.8838L174.289 76.8745L174.291 76.8652L173.325 76.609ZM178.413 57.409L179.379 57.6652L179.387 57.6354L179.393 57.6051L178.413 57.409ZM177.549 53.569L176.841 54.2761L176.858 54.293L176.876 54.309L177.549 53.569ZM158.637 52.609V51.609H157.871L157.671 52.3484L158.637 52.609ZM150.861 81.409L149.895 81.1484L149.555 82.409H150.861V81.409ZM136.077 90.009C135.809 90.009 135.647 89.9716 135.56 89.9366C135.484 89.9063 135.471 89.8821 135.469 89.8783L133.804 90.9877C134.329 91.7747 135.223 92.009 136.077 92.009V90.009ZM135.405 89.7928C135.369 89.75 135.271 89.623 135.402 89.1844L133.487 88.6097C133.234 89.4511 133.264 90.3481 133.868 91.0732L135.405 89.7928ZM135.41 89.1557L152.402 25.6997L150.471 25.1824L133.479 88.6384L135.41 89.1557ZM152.396 25.7232C152.509 25.3374 152.669 25.1353 152.823 25.0212C152.979 24.9061 153.227 24.809 153.645 24.809V22.809C152.91 22.809 152.214 22.984 151.634 23.4129C151.052 23.8428 150.684 24.4567 150.477 25.1589L152.396 25.7232ZM153.645 24.809H164.109V22.809H153.645V24.809ZM164.109 24.809C164.376 24.809 164.538 24.8465 164.625 24.8815C164.701 24.9118 164.714 24.9359 164.716 24.9397L166.381 23.8303C165.856 23.0433 164.962 22.809 164.109 22.809V24.809ZM164.78 25.0252C164.816 25.0681 164.914 25.1951 164.783 25.6337L166.698 26.2084C166.951 25.367 166.921 24.47 166.317 23.7448L164.78 25.0252ZM164.775 25.6607L160.167 42.7487L162.098 43.2694L166.706 26.1814L164.775 25.6607ZM161.133 44.009H187.053V42.009H161.133V44.009ZM187.053 44.009C189.005 44.009 190.497 44.6032 191.625 45.7321L193.04 44.3179C191.481 42.7588 189.452 42.009 187.053 42.009V44.009ZM191.642 45.7484C192.834 46.8866 193.445 48.3445 193.445 50.209H195.445C195.445 47.8496 194.647 45.8515 193.023 44.3017L191.642 45.7484ZM193.445 50.209C193.445 50.8252 193.36 51.553 193.179 52.3995L195.134 52.8186C195.337 51.8731 195.445 51.0009 195.445 50.209H193.445ZM193.191 52.3484L185.415 81.1484L187.346 81.6697L195.122 52.8697L193.191 52.3484ZM185.415 81.1499C184.774 83.5374 183.345 85.634 181.057 87.4402L182.296 89.0099C184.872 86.9761 186.579 84.5287 187.346 81.6682L185.415 81.1499ZM181.06 87.438C178.841 89.1772 176.557 90.009 174.189 90.009V92.009C177.068 92.009 179.776 90.9848 182.293 89.0121L181.06 87.438ZM174.189 90.009H136.077V92.009H174.189V90.009ZM167.181 82.409C168.766 82.409 170.227 81.8744 171.538 80.8544L170.311 79.2757C169.318 80.0476 168.283 80.409 167.181 80.409V82.409ZM171.544 80.8499C172.906 79.7747 173.838 78.4512 174.286 76.8838L172.363 76.3343C172.043 77.4548 171.375 78.4354 170.305 79.2801L171.544 80.8499ZM174.291 76.8652L179.379 57.6652L177.446 57.1529L172.358 76.3529L174.291 76.8652ZM179.393 57.6051C179.52 56.9697 179.605 56.4321 179.605 56.065H177.605C177.605 56.2099 177.561 56.5684 177.432 57.2129L179.393 57.6051ZM179.605 56.065C179.605 54.7834 179.151 53.6743 178.221 52.8291L176.876 54.309C177.354 54.7438 177.605 55.2986 177.605 56.065H179.605ZM178.256 52.8619C177.391 51.9974 176.252 51.609 174.957 51.609V53.609C175.837 53.609 176.426 53.8607 176.841 54.2761L178.256 52.8619ZM174.957 51.609H158.637V53.609H174.957V51.609ZM157.671 52.3484L149.895 81.1484L151.826 81.6697L159.602 52.8697L157.671 52.3484ZM150.861 82.409H167.181V80.409H150.861V82.409ZM192.939 88.993L193.646 88.2859L193.637 88.2777L193.629 88.2697L192.939 88.993ZM191.211 81.409L190.244 81.1517L190.239 81.1718L190.234 81.1921L191.211 81.409ZM201.003 44.641L200.043 44.3589L200.04 44.3712L200.036 44.3837L201.003 44.641ZM215.115 43.585L214.282 44.1397L214.312 44.1842L214.346 44.2252L215.115 43.585ZM215.307 45.121L214.349 44.8337L214.344 44.8491L214.34 44.8647L215.307 45.121ZM206.955 76.609L205.988 76.3527L205.98 76.3826L205.974 76.4129L206.955 76.609ZM207.723 80.449L207.015 81.1561L207.032 81.173L207.05 81.189L207.723 80.449ZM225.675 80.065L226.288 80.8544L226.294 80.8499L225.675 80.065ZM228.075 76.609L229.036 76.8838L229.039 76.8742L229.041 76.8645L228.075 76.609ZM236.523 44.641L235.563 44.3589L235.559 44.3722L235.556 44.3855L236.523 44.641ZM250.635 43.585L249.802 44.1397L249.832 44.1842L249.866 44.2252L250.635 43.585ZM250.827 45.121L249.869 44.8337L249.864 44.8482L249.86 44.8629L250.827 45.121ZM241.131 81.409L242.096 81.6682L242.097 81.6672L241.131 81.409ZM236.427 88.225L237.043 89.0121L237.046 89.0099L236.427 88.225ZM198.219 90.009C196.266 90.009 194.775 89.4148 193.646 88.2859L192.231 89.7001C193.791 91.2592 195.819 92.009 198.219 92.009V90.009ZM193.629 88.2697C192.43 87.1251 191.827 85.6957 191.827 83.905H189.827C189.827 86.2103 190.631 88.1729 192.248 89.7164L193.629 88.2697ZM191.827 83.905C191.827 83.5126 191.931 82.7746 192.187 81.626L190.234 81.1921C189.978 82.3474 189.827 83.2734 189.827 83.905H191.827ZM192.177 81.6664L201.969 44.8984L200.036 44.3837L190.244 81.1517L192.177 81.6664ZM201.962 44.9232C202.075 44.5374 202.235 44.3353 202.389 44.2212C202.545 44.1061 202.793 44.009 203.211 44.009V42.009C202.476 42.009 201.78 42.184 201.2 42.6129C200.618 43.0428 200.25 43.6567 200.043 44.3589L201.962 44.9232ZM203.211 44.009H213.675V42.009H203.211V44.009ZM213.675 44.009C213.942 44.009 214.104 44.0465 214.191 44.0815C214.267 44.1118 214.28 44.1359 214.282 44.1397L215.947 43.0303C215.422 42.2433 214.528 42.009 213.675 42.009V44.009ZM214.346 44.2252C214.382 44.2681 214.48 44.3951 214.349 44.8337L216.264 45.4084C216.517 44.567 216.487 43.67 215.883 42.9448L214.346 44.2252ZM214.34 44.8647L205.988 76.3527L207.921 76.8654L216.273 45.3774L214.34 44.8647ZM205.974 76.4129C205.847 77.0484 205.763 77.5859 205.763 77.953H207.763C207.763 77.8081 207.806 77.4497 207.935 76.8051L205.974 76.4129ZM205.763 77.953C205.763 79.2043 206.163 80.3034 207.015 81.1561L208.43 79.7419C208.002 79.3147 207.763 78.7498 207.763 77.953H205.763ZM207.05 81.189C207.964 82.0204 209.112 82.409 210.411 82.409V80.409C209.533 80.409 208.889 80.1577 208.395 79.7091L207.05 81.189ZM210.411 82.409H221.931V80.409H210.411V82.409ZM221.931 82.409C223.516 82.409 224.977 81.8744 226.288 80.8544L225.061 79.2757C224.068 80.0476 223.033 80.409 221.931 80.409V82.409ZM226.294 80.8499C227.656 79.7747 228.588 78.4512 229.036 76.8838L227.113 76.3343C226.793 77.4548 226.125 78.4354 225.055 79.2801L226.294 80.8499ZM229.041 76.8645L237.489 44.8965L235.556 44.3855L227.108 76.3535L229.041 76.8645ZM237.482 44.9232C237.595 44.5374 237.755 44.3353 237.909 44.2212C238.065 44.1061 238.313 44.009 238.731 44.009V42.009C237.996 42.009 237.3 42.184 236.72 42.6129C236.138 43.0428 235.77 43.6567 235.563 44.3589L237.482 44.9232ZM238.731 44.009H249.195V42.009H238.731V44.009ZM249.195 44.009C249.462 44.009 249.624 44.0465 249.711 44.0815C249.787 44.1118 249.8 44.1359 249.802 44.1397L251.467 43.0303C250.942 42.2433 250.048 42.009 249.195 42.009V44.009ZM249.866 44.2252C249.902 44.2681 250 44.3951 249.869 44.8337L251.784 45.4084C252.037 44.567 252.007 43.6699 251.403 42.9448L249.866 44.2252ZM249.86 44.8629L240.164 81.1509L242.097 81.6672L251.793 45.3792L249.86 44.8629ZM240.165 81.1499C239.524 83.5374 238.095 85.634 235.807 87.4402L237.046 89.0099C239.622 86.9761 241.329 84.5287 242.096 81.6682L240.165 81.1499ZM235.81 87.438C233.591 89.1772 231.307 90.009 228.939 90.009V92.009C231.818 92.009 234.526 90.9848 237.043 89.0121L235.81 87.438ZM228.939 90.009H198.219V92.009H228.939V90.009ZM244.137 90.433L244.969 89.8783L244.939 89.8339L244.905 89.7928L244.137 90.433ZM243.945 88.897L244.902 89.1844L244.907 89.1676L244.912 89.1507L243.945 88.897ZM245.481 83.041L244.521 82.7589L244.517 82.773L244.513 82.7873L245.481 83.041ZM281.001 79.585L280.33 78.8435L280.321 78.8517L280.312 78.86L281.001 79.585ZM281.961 72.865L281.221 73.5377L281.253 73.5729L281.288 73.605L281.961 72.865ZM252.777 69.793L252.069 70.5001L252.078 70.5084L252.086 70.5164L252.777 69.793ZM251.145 62.209L250.179 61.9484L250.173 61.9701L250.168 61.9921L251.145 62.209ZM253.737 52.609L254.702 52.8697L254.705 52.8579L254.708 52.846L253.737 52.609ZM258.249 45.889L258.865 46.6761L258.868 46.6739L258.249 45.889ZM305.289 43.585L304.456 44.1397L304.486 44.1842L304.52 44.2252L305.289 43.585ZM305.577 45.121L306.544 45.3747L306.551 45.3461L306.557 45.3171L305.577 45.121ZM304.041 50.977L305 51.2592L305.004 51.245L305.008 51.2307L304.041 50.977ZM268.521 54.433L267.85 53.6915L267.841 53.6997L267.832 53.708L268.521 54.433ZM267.561 61.249L266.821 61.9217L266.853 61.9569L266.888 61.989L267.561 61.249ZM296.745 64.225L296.037 64.9321L296.046 64.9404L296.054 64.9484L296.745 64.225ZM298.473 71.809L299.438 72.0697L299.444 72.048L299.449 72.026L298.473 71.809ZM295.881 81.409L294.915 81.1484L294.915 81.1499L295.881 81.409ZM291.177 88.225L291.793 89.0121L291.796 89.0099L291.177 88.225ZM245.577 90.009C245.309 90.009 245.147 89.9716 245.06 89.9366C244.984 89.9063 244.971 89.8821 244.969 89.8783L243.304 90.9877C243.829 91.7747 244.723 92.009 245.577 92.009V90.009ZM244.905 89.7928C244.869 89.75 244.771 89.623 244.902 89.1844L242.987 88.6097C242.734 89.4511 242.764 90.3481 243.368 91.0732L244.905 89.7928ZM244.912 89.1507L246.448 83.2947L244.513 82.7873L242.977 88.6433L244.912 89.1507ZM246.44 83.3232C246.553 82.9374 246.713 82.7353 246.867 82.6212C247.023 82.5061 247.271 82.409 247.689 82.409V80.409C246.954 80.409 246.258 80.584 245.678 81.0129C245.096 81.4428 244.728 82.0567 244.521 82.7589L246.44 83.3232ZM247.689 82.409H276.681V80.409H247.689V82.409ZM276.681 82.409C278.564 82.409 280.244 81.6827 281.689 80.31L280.312 78.86C279.197 79.9194 277.997 80.409 276.681 80.409V82.409ZM281.671 80.3266C283.194 78.9489 284.017 77.2826 284.017 75.361H282.017C282.017 76.6394 281.495 77.7892 280.33 78.8435L281.671 80.3266ZM284.017 75.361C284.017 74.0794 283.563 72.9703 282.633 72.1251L281.288 73.605C281.766 74.0398 282.017 74.5947 282.017 75.361H284.017ZM282.7 72.1924C281.832 71.2366 280.642 70.809 279.273 70.809V72.809C280.207 72.809 280.809 73.0855 281.221 73.5377L282.7 72.1924ZM279.273 70.809H258.153V72.809H279.273V70.809ZM258.153 70.809C256.201 70.809 254.666 70.2146 253.467 69.0697L252.086 70.5164C253.703 72.0595 255.752 72.809 258.153 72.809V70.809ZM253.484 69.0859C252.343 67.9449 251.761 66.5105 251.761 64.705H249.761C249.761 66.9955 250.522 68.9531 252.069 70.5001L253.484 69.0859ZM251.761 64.705C251.761 64.3126 251.865 63.5746 252.121 62.426L250.168 61.9921C249.912 63.1474 249.761 64.0734 249.761 64.705H251.761ZM252.11 62.4697L254.702 52.8697L252.771 52.3484L250.179 61.9484L252.11 62.4697ZM254.708 52.846C255.289 50.4648 256.653 48.4104 258.865 46.6761L257.632 45.102C255.108 47.0797 253.464 49.5052 252.765 52.3721L254.708 52.846ZM258.868 46.6739C261.157 44.867 263.472 44.009 265.833 44.009V42.009C262.945 42.009 260.204 43.071 257.629 45.1041L258.868 46.6739ZM265.833 44.009H303.945V42.009H265.833V44.009ZM303.945 44.009C304.169 44.009 304.299 44.0434 304.367 44.0722C304.423 44.0963 304.442 44.1184 304.456 44.1397L306.121 43.0303C305.612 42.2682 304.778 42.009 303.945 42.009V44.009ZM304.52 44.2252C304.591 44.3098 304.684 44.4837 304.596 44.9249L306.557 45.3171C306.725 44.4784 306.626 43.6283 306.057 42.9448L304.52 44.2252ZM304.609 44.8673L303.073 50.7233L305.008 51.2307L306.544 45.3747L304.609 44.8673ZM303.081 50.6949C302.964 51.0925 302.806 51.2981 302.661 51.4097C302.52 51.5184 302.302 51.609 301.929 51.609V53.609C302.643 53.609 303.321 53.4276 303.884 52.9923C304.443 52.56 304.797 51.9496 305 51.2592L303.081 50.6949ZM301.929 51.609H272.937V53.609H301.929V51.609ZM272.937 51.609C271.055 51.609 269.351 52.3328 267.85 53.6915L269.191 55.1746C270.378 54.1012 271.618 53.609 272.937 53.609V51.609ZM267.832 53.708C266.376 55.0912 265.601 56.753 265.601 58.657H267.601C267.601 57.361 268.105 56.2069 269.209 55.158L267.832 53.708ZM265.601 58.657C265.601 59.9091 266 61.0189 266.821 61.9217L268.3 60.5764C267.841 60.0712 267.601 59.4529 267.601 58.657H265.601ZM266.888 61.989C267.813 62.83 268.999 63.209 270.345 63.209V61.209C269.386 61.209 268.716 60.948 268.233 60.5091L266.888 61.989ZM270.345 63.209H291.465V61.209H270.345V63.209ZM291.465 63.209C293.417 63.209 294.909 63.8032 296.037 64.9321L297.452 63.5179C295.893 61.9588 293.864 61.209 291.465 61.209V63.209ZM296.054 64.9484C297.253 66.0929 297.857 67.5223 297.857 69.313H299.857C299.857 67.0077 299.052 65.0451 297.435 63.5017L296.054 64.9484ZM297.857 69.313C297.857 69.7054 297.752 70.4434 297.496 71.5921L299.449 72.026C299.705 70.8706 299.857 69.9446 299.857 69.313H297.857ZM297.507 71.5484L294.915 81.1484L296.846 81.6697L299.438 72.0697L297.507 71.5484ZM294.915 81.1499C294.274 83.5374 292.845 85.634 290.557 87.4402L291.796 89.0099C294.372 86.9761 296.079 84.5287 296.846 81.6682L294.915 81.1499ZM290.56 87.438C288.341 89.1772 286.057 90.009 283.689 90.009V92.009C286.568 92.009 289.276 90.9848 291.793 89.0121L290.56 87.438ZM283.689 90.009H245.577V92.009H283.689V90.009Z" fill="white" mask="url(#path-1-outside-1_5135_72)"/>
<path d="M60.8429 114.225C60.6603 114.225 60.5275 114.176 60.4445 114.076C60.3781 113.976 60.3698 113.844 60.4196 113.678L62.9593 104.266H59.573C59.407 104.266 59.2825 104.216 59.1995 104.116C59.1331 104.017 59.1165 103.884 59.1497 103.718L59.5481 102.199C59.6311 101.917 59.8137 101.776 60.0959 101.776H63.6066L64.2789 99.286C64.4615 98.6054 64.8599 98.0244 65.4741 97.543C66.1048 97.0451 66.7605 96.7961 67.4411 96.7961H72.7197C72.9023 96.7961 73.0268 96.8459 73.0932 96.9455C73.1761 97.0451 73.1927 97.1778 73.1429 97.3438L72.7446 98.8627C72.6616 99.1449 72.4707 99.286 72.1719 99.286H69.2587C68.9101 99.286 68.5781 99.4105 68.2628 99.6594C67.964 99.8918 67.7731 100.182 67.6901 100.531L67.3415 101.776H71.3751C71.5411 101.776 71.6573 101.826 71.7237 101.925C71.8067 102.025 71.8316 102.158 71.7984 102.324L71.4 103.842C71.317 104.125 71.1344 104.266 70.8522 104.266H66.6941L64.1295 113.802C64.0465 114.084 63.8556 114.225 63.5568 114.225H60.8429ZM70.4276 114.225C70.245 114.225 70.1205 114.176 70.0541 114.076C69.9711 113.976 69.9545 113.844 70.0043 113.678L72.544 104.266C72.71 103.585 73.1001 103.004 73.7143 102.523C74.345 102.025 75.0007 101.776 75.6813 101.776H85.5662C85.7322 101.776 85.8484 101.826 85.9148 101.925C85.9978 102.025 86.0227 102.158 85.9895 102.324L85.5911 103.842C85.5081 104.125 85.3255 104.266 85.0433 104.266H77.5238C77.1752 104.266 76.8432 104.39 76.5278 104.639C76.2291 104.872 76.0299 105.162 75.9303 105.511L73.7143 113.802C73.6313 114.084 73.4404 114.225 73.1416 114.225H70.4276ZM86.545 114.225C85.9806 114.225 85.5242 114.051 85.1756 113.702C84.8104 113.354 84.6278 112.914 84.6278 112.383C84.6278 112.25 84.661 112.034 84.7274 111.735L86.7442 104.266C86.9102 103.585 87.3003 103.004 87.9145 102.523C88.5452 102.025 89.2009 101.776 89.8815 101.776H97.8491C98.4135 101.776 98.87 101.95 99.2186 102.299C99.5838 102.647 99.7664 103.096 99.7664 103.643C99.7664 103.826 99.7415 104.033 99.6917 104.266L97.6748 111.735C97.4923 112.416 97.0856 113.005 96.4548 113.503C95.8406 113.985 95.1933 114.225 94.5127 114.225H86.545ZM92.6951 111.735C93.0436 111.735 93.3673 111.619 93.6661 111.387C93.9815 111.138 94.189 110.839 94.2886 110.49L95.6082 105.511C95.6414 105.345 95.658 105.229 95.658 105.162C95.658 104.897 95.5667 104.681 95.3841 104.515C95.2182 104.349 94.9941 104.266 94.7119 104.266H91.724C91.3754 104.266 91.0434 104.39 90.728 104.639C90.4292 104.872 90.2301 105.162 90.1305 105.511L88.8108 110.49C88.7776 110.656 88.761 110.773 88.761 110.839C88.761 111.105 88.844 111.32 89.01 111.486C89.1926 111.652 89.425 111.735 89.7072 111.735H92.6951ZM98.828 114.225C98.6454 114.225 98.5209 114.176 98.4545 114.076C98.3715 113.976 98.3549 113.844 98.4047 113.678L100.944 104.266C101.11 103.585 101.5 103.004 102.115 102.523C102.745 102.025 103.401 101.776 104.082 101.776H112.049C112.614 101.776 113.07 101.95 113.419 102.299C113.784 102.647 113.967 103.096 113.967 103.643C113.967 103.826 113.942 104.033 113.892 104.266L111.327 113.802C111.244 114.084 111.053 114.225 110.755 114.225H108.041C107.858 114.225 107.725 114.176 107.642 114.076C107.576 113.976 107.568 113.844 107.617 113.678L109.808 105.511C109.842 105.345 109.858 105.229 109.858 105.162C109.858 104.897 109.767 104.681 109.584 104.515C109.418 104.349 109.194 104.266 108.912 104.266H105.924C105.576 104.266 105.244 104.39 104.928 104.639C104.629 104.872 104.43 105.162 104.331 105.511L102.115 113.802C102.032 114.084 101.841 114.225 101.542 114.225H98.828ZM119.552 114.225C118.987 114.225 118.523 114.051 118.157 113.702C117.809 113.354 117.634 112.914 117.634 112.383C117.634 112.25 117.668 112.034 117.734 111.735L119.751 104.266H115.717C115.551 104.266 115.427 104.216 115.344 104.116C115.277 104.017 115.261 103.884 115.294 103.718L115.692 102.199C115.775 101.917 115.958 101.776 116.24 101.776H120.398L121.618 97.2193C121.701 96.9372 121.892 96.7961 122.191 96.7961H124.905C125.088 96.7961 125.212 96.8459 125.278 96.9455C125.361 97.0451 125.378 97.1778 125.328 97.3438L124.133 101.776H128.167C128.333 101.776 128.449 101.826 128.515 101.925C128.598 102.025 128.623 102.158 128.59 102.324L128.192 103.842C128.109 104.125 127.926 104.266 127.644 104.266H123.486L121.818 110.49C121.784 110.656 121.768 110.773 121.768 110.839C121.768 111.105 121.851 111.32 122.017 111.486C122.199 111.652 122.432 111.735 122.714 111.735H125.503C125.685 111.735 125.81 111.785 125.876 111.885C125.959 111.984 125.976 112.117 125.926 112.283L125.527 113.802C125.444 114.084 125.254 114.225 124.955 114.225H119.552ZM129.146 114.225C128.581 114.225 128.125 114.051 127.776 113.702C127.411 113.354 127.228 112.914 127.228 112.383C127.228 112.25 127.262 112.034 127.328 111.735L129.345 104.266C129.511 103.585 129.901 103.004 130.515 102.523C131.146 102.025 131.801 101.776 132.482 101.776H140.45C141.014 101.776 141.471 101.95 141.819 102.299C142.184 102.647 142.367 103.096 142.367 103.643C142.367 103.826 142.342 104.033 142.292 104.266L141.62 106.756C141.437 107.436 141.031 108.025 140.4 108.523C139.786 109.005 139.138 109.246 138.458 109.246H131.735L131.411 110.49C131.378 110.656 131.362 110.773 131.362 110.839C131.362 111.105 131.445 111.32 131.611 111.486C131.793 111.652 132.026 111.735 132.308 111.735H139.703C139.885 111.735 140.01 111.785 140.076 111.885C140.159 111.984 140.176 112.117 140.126 112.283L139.728 113.802C139.645 114.084 139.454 114.225 139.155 114.225H129.146ZM136.64 106.756C137.055 106.756 137.429 106.598 137.761 106.283C138.093 105.951 138.259 105.577 138.259 105.162C138.259 104.897 138.167 104.681 137.985 104.515C137.819 104.349 137.595 104.266 137.312 104.266H134.325C133.976 104.266 133.644 104.39 133.329 104.639C133.03 104.872 132.831 105.162 132.731 105.511L132.407 106.756H136.64ZM141.429 114.225C141.246 114.225 141.121 114.176 141.055 114.076C140.972 113.976 140.955 113.844 141.005 113.678L143.545 104.266C143.711 103.585 144.101 103.004 144.715 102.523C145.346 102.025 146.002 101.776 146.682 101.776H154.65C155.214 101.776 155.671 101.95 156.019 102.299C156.385 102.647 156.567 103.096 156.567 103.643C156.567 103.826 156.542 104.033 156.492 104.266L153.928 113.802C153.845 114.084 153.654 114.225 153.355 114.225H150.641C150.459 114.225 150.326 114.176 150.243 114.076C150.176 113.976 150.168 113.844 150.218 113.678L152.409 105.511C152.442 105.345 152.459 105.229 152.459 105.162C152.459 104.897 152.368 104.681 152.185 104.515C152.019 104.349 151.795 104.266 151.513 104.266H148.525C148.176 104.266 147.844 104.39 147.529 104.639C147.23 104.872 147.031 105.162 146.931 105.511L144.715 113.802C144.632 114.084 144.441 114.225 144.143 114.225H141.429ZM157.546 114.225C156.982 114.225 156.525 114.051 156.177 113.702C155.811 113.354 155.629 112.914 155.629 112.383C155.629 112.25 155.662 112.034 155.728 111.735L157.745 104.266C157.911 103.585 158.301 103.004 158.915 102.523C159.546 102.025 160.202 101.776 160.882 101.776H167.605L168.825 97.2193C168.908 96.9372 169.099 96.7961 169.398 96.7961H172.112C172.294 96.7961 172.419 96.8459 172.485 96.9455C172.568 97.0451 172.585 97.1778 172.535 97.3438L168.128 113.802C168.045 114.084 167.854 114.225 167.555 114.225H157.546ZM166.958 104.266H162.725C162.376 104.266 162.044 104.39 161.729 104.639C161.43 104.872 161.231 105.162 161.131 105.511L159.812 110.49C159.779 110.656 159.762 110.773 159.762 110.839C159.762 111.105 159.845 111.32 160.011 111.486C160.194 111.652 160.426 111.735 160.708 111.735H164.941L166.958 104.266ZM184.196 114.225C183.631 114.225 183.175 114.051 182.826 113.702C182.461 113.354 182.278 112.914 182.278 112.383C182.278 112.25 182.312 112.034 182.378 111.735L184.395 104.266C184.561 103.585 184.951 103.004 185.565 102.523C186.196 102.025 186.852 101.776 187.532 101.776H194.255L195.475 97.2193C195.558 96.9372 195.749 96.7961 196.048 96.7961H198.762C198.944 96.7961 199.069 96.8459 199.135 96.9455C199.218 97.0451 199.235 97.1778 199.185 97.3438L194.778 113.802C194.695 114.084 194.504 114.225 194.205 114.225H184.196ZM193.607 104.266H189.375C189.026 104.266 188.694 104.39 188.379 104.639C188.08 104.872 187.881 105.162 187.781 105.511L186.461 110.49C186.428 110.656 186.412 110.773 186.412 110.839C186.412 111.105 186.495 111.32 186.661 111.486C186.843 111.652 187.076 111.735 187.358 111.735H191.591L193.607 104.266ZM198.396 114.225C197.831 114.225 197.375 114.051 197.026 113.702C196.661 113.354 196.479 112.914 196.479 112.383C196.479 112.25 196.512 112.034 196.578 111.735L198.595 104.266C198.761 103.585 199.151 103.004 199.765 102.523C200.396 102.025 201.052 101.776 201.732 101.776H209.7C210.264 101.776 210.721 101.95 211.069 102.299C211.435 102.647 211.617 103.096 211.617 103.643C211.617 103.826 211.592 104.033 211.542 104.266L210.87 106.756C210.688 107.436 210.281 108.025 209.65 108.523C209.036 109.005 208.389 109.246 207.708 109.246H200.985L200.662 110.49C200.628 110.656 200.612 110.773 200.612 110.839C200.612 111.105 200.695 111.32 200.861 111.486C201.043 111.652 201.276 111.735 201.558 111.735H208.953C209.136 111.735 209.26 111.785 209.326 111.885C209.409 111.984 209.426 112.117 209.376 112.283L208.978 113.802C208.895 114.084 208.704 114.225 208.405 114.225H198.396ZM205.89 106.756C206.305 106.756 206.679 106.598 207.011 106.283C207.343 105.951 207.509 105.577 207.509 105.162C207.509 104.897 207.418 104.681 207.235 104.515C207.069 104.349 206.845 104.266 206.563 104.266H203.575C203.226 104.266 202.894 104.39 202.579 104.639C202.28 104.872 202.081 105.162 201.981 105.511L201.658 106.756H205.89ZM214.787 114.225C214.206 114.225 213.708 114.068 213.293 113.752C212.895 113.42 212.646 112.98 212.546 112.433L211.949 108.947C211.915 108.648 211.899 108.407 211.899 108.225C211.899 107.793 211.957 107.37 212.073 106.955L213.318 102.199C213.401 101.917 213.592 101.776 213.891 101.776H216.605C216.787 101.776 216.912 101.826 216.978 101.925C217.061 102.025 217.078 102.158 217.028 102.324L215.659 107.478C215.576 107.76 215.551 108.092 215.584 108.474L216.007 110.764C216.04 111.063 216.165 111.304 216.381 111.486C216.613 111.652 216.887 111.735 217.202 111.735H218.746C219.095 111.735 219.418 111.619 219.717 111.387C220.033 111.138 220.24 110.839 220.34 110.49L222.531 102.199C222.614 101.917 222.805 101.776 223.103 101.776H225.817C226 101.776 226.124 101.826 226.191 101.925C226.274 102.025 226.29 102.158 226.241 102.324L223.726 111.735C223.543 112.416 223.137 113.005 222.506 113.503C221.892 113.985 221.244 114.225 220.564 114.225H214.787ZM226.796 114.225C226.232 114.225 225.775 114.051 225.427 113.702C225.062 113.354 224.879 112.914 224.879 112.383C224.879 112.25 224.912 112.034 224.979 111.735L226.995 104.266C227.161 103.585 227.551 103.004 228.166 102.523C228.796 102.025 229.452 101.776 230.133 101.776H238.1C238.665 101.776 239.121 101.95 239.47 102.299C239.835 102.647 240.018 103.096 240.018 103.643C240.018 103.826 239.993 104.033 239.943 104.266L239.271 106.756C239.088 107.436 238.681 108.025 238.051 108.523C237.436 109.005 236.789 109.246 236.108 109.246H229.386L229.062 110.49C229.029 110.656 229.012 110.773 229.012 110.839C229.012 111.105 229.095 111.32 229.261 111.486C229.444 111.652 229.676 111.735 229.958 111.735H237.353C237.536 111.735 237.66 111.785 237.727 111.885C237.81 111.984 237.826 112.117 237.777 112.283L237.378 113.802C237.295 114.084 237.104 114.225 236.806 114.225H226.796ZM234.291 106.756C234.706 106.756 235.079 106.598 235.411 106.283C235.743 105.951 235.909 105.577 235.909 105.162C235.909 104.897 235.818 104.681 235.635 104.515C235.469 104.349 235.245 104.266 234.963 104.266H231.975C231.627 104.266 231.295 104.39 230.979 104.639C230.68 104.872 230.481 105.162 230.382 105.511L230.058 106.756H234.291ZM239.079 114.225C238.897 114.225 238.772 114.176 238.706 114.076C238.623 113.976 238.606 113.844 238.656 113.678L243.063 97.2193C243.146 96.9372 243.337 96.7961 243.636 96.7961H246.35C246.532 96.7961 246.657 96.8459 246.723 96.9455C246.806 97.0451 246.823 97.1778 246.773 97.3438L242.366 113.802C242.283 114.084 242.092 114.225 241.793 114.225H239.079ZM245.981 114.225C245.417 114.225 244.96 114.051 244.612 113.702C244.246 113.354 244.064 112.914 244.064 112.383C244.064 112.25 244.097 112.034 244.163 111.735L246.18 104.266C246.346 103.585 246.736 103.004 247.351 102.523C247.981 102.025 248.637 101.776 249.318 101.776H257.285C257.85 101.776 258.306 101.95 258.655 102.299C259.02 102.647 259.202 103.096 259.202 103.643C259.202 103.826 259.178 104.033 259.128 104.266L257.111 111.735C256.928 112.416 256.522 113.005 255.891 113.503C255.277 113.985 254.629 114.225 253.949 114.225H245.981ZM252.131 111.735C252.48 111.735 252.803 111.619 253.102 111.387C253.418 111.138 253.625 110.839 253.725 110.49L255.044 105.511C255.077 105.345 255.094 105.229 255.094 105.162C255.094 104.897 255.003 104.681 254.82 104.515C254.654 104.349 254.43 104.266 254.148 104.266H251.16C250.811 104.266 250.479 104.39 250.164 104.639C249.865 104.872 249.666 105.162 249.567 105.511L248.247 110.49C248.214 110.656 248.197 110.773 248.197 110.839C248.197 111.105 248.28 111.32 248.446 111.486C248.629 111.652 248.861 111.735 249.143 111.735H252.131ZM256.944 119.205C256.762 119.205 256.637 119.155 256.571 119.056C256.488 118.956 256.471 118.823 256.521 118.657L260.903 102.199C260.986 101.917 261.177 101.776 261.476 101.776H271.485C272.05 101.776 272.506 101.95 272.855 102.299C273.22 102.647 273.403 103.096 273.403 103.643C273.403 103.826 273.378 104.033 273.328 104.266L271.311 111.735C271.129 112.416 270.722 113.005 270.091 113.503C269.477 113.985 268.829 114.225 268.149 114.225H261.426L260.231 118.782C260.148 119.064 259.957 119.205 259.658 119.205H256.944ZM266.331 111.735C266.68 111.735 267.004 111.619 267.302 111.387C267.618 111.138 267.825 110.839 267.925 110.49L269.244 105.511C269.278 105.345 269.294 105.229 269.294 105.162C269.294 104.897 269.203 104.681 269.02 104.515C268.854 104.349 268.63 104.266 268.348 104.266H264.115L262.098 111.735H266.331ZM274.381 114.225C273.817 114.225 273.361 114.051 273.012 113.702C272.647 113.354 272.464 112.914 272.464 112.383C272.464 112.25 272.497 112.034 272.564 111.735L274.581 104.266C274.747 103.585 275.137 103.004 275.751 102.523C276.382 102.025 277.037 101.776 277.718 101.776H285.686C286.25 101.776 286.706 101.95 287.055 102.299C287.42 102.647 287.603 103.096 287.603 103.643C287.603 103.826 287.578 104.033 287.528 104.266L286.856 106.756C286.673 107.436 286.267 108.025 285.636 108.523C285.022 109.005 284.374 109.246 283.694 109.246H276.971L276.647 110.49C276.614 110.656 276.597 110.773 276.597 110.839C276.597 111.105 276.68 111.32 276.846 111.486C277.029 111.652 277.261 111.735 277.544 111.735H284.939C285.121 111.735 285.246 111.785 285.312 111.885C285.395 111.984 285.412 112.117 285.362 112.283L284.964 113.802C284.881 114.084 284.69 114.225 284.391 114.225H274.381ZM281.876 106.756C282.291 106.756 282.665 106.598 282.996 106.283C283.328 105.951 283.494 105.577 283.494 105.162C283.494 104.897 283.403 104.681 283.221 104.515C283.055 104.349 282.831 104.266 282.548 104.266H279.56C279.212 104.266 278.88 104.39 278.564 104.639C278.266 104.872 278.066 105.162 277.967 105.511L277.643 106.756H281.876ZM286.664 114.225C286.482 114.225 286.357 114.176 286.291 114.076C286.208 113.976 286.191 113.844 286.241 113.678L288.781 104.266C288.947 103.585 289.337 103.004 289.951 102.523C290.582 102.025 291.238 101.776 291.918 101.776H301.803C301.969 101.776 302.085 101.826 302.152 101.925C302.235 102.025 302.259 102.158 302.226 102.324L301.828 103.842C301.745 104.125 301.562 104.266 301.28 104.266H293.761C293.412 104.266 293.08 104.39 292.765 104.639C292.466 104.872 292.267 105.162 292.167 105.511L289.951 113.802C289.868 114.084 289.677 114.225 289.378 114.225H286.664Z" fill="white"/>
</svg>
